# xmcd
#
# Track frame offsets:
# 150
# 19817
# 32182
# 48390
# 66400
# 79042
# 92154
# 105230
# 115010
# 129550
# 144397
# 156815
# 168367
# 182147
# 195685
# 210085
#
# Disc length: 2964 seconds
#
#
# Revision: 0
# Processed by: cddbd v1.5.2PL0 Copyright (c) Steve Scherf et al.
# Submitted via: FreeRIP 2.945 
#
DISCID=d00b9210
DTITLE=Ray Douglas - Ao Vivo
DYEAR=1900
DGENRE=Seresta
TTITLE0=Borbulhas de Amor
TTITLE1=A Beleza da Rosa
TTITLE2=Tenho Ciúme de Tudo
TTITLE3=Yolanda
TTITLE4=Sentimental Demais
TTITLE5=Nosso Juramento
TTITLE6=Relogio
TTITLE7=Perfidia
TTITLE8=Pra Que Fugir de Mim
TTITLE9=Senhorita
TTITLE10=Mar de Rosas
TTITLE11=Candida
TTITLE12=O Carpinteiro
TTITLE13=Garçon
TTITLE14=A Raposa e as Uvas
TTITLE15=Sinto Sua Falta
EXTD=
EXTT0=
EXTT1=
EXTT2=
EXTT3=
EXTT4=
EXTT5=
EXTT6=
EXTT7=
EXTT8=
EXTT9=
EXTT10=
EXTT11=
EXTT12=
EXTT13=
EXTT14=
EXTT15=
PLAYORDER=
